<?xml version="1.0" standalone="no"?><!DOCTYPE svg PUBLIC "-//W3C//DTD SVG 1.1//EN" "http://www.w3.org/Graphics/SVG/1.1/DTD/svg11.dtd"><svg t="1644158946121" class="icon" viewBox="0 0 1026 1024" version="1.1" xmlns="http://www.w3.org/2000/svg" p-id="4234" xmlns:xlink="http://www.w3.org/1999/xlink" width="200.390625" height="200"><defs><style type="text/css"></style></defs><path d="M512.072321 64.049197L64.09528 238.44026 512.072321 412.831322l450.088933-174.391062L512.008325 64.049197z m23.03882-59.644943l450.152929 174.391063a63.99672 63.99672 0 0 1 0 119.353883L535.111141 472.540262a63.99672 63.99672 0 0 1-46.333626 0L40.864471 298.021206a63.99672 63.99672 0 0 1 0-119.289886l447.977041-174.391062a63.99672 63.99672 0 0 1 46.269629 0z" fill="#333333" p-id="4235"></path><path d="M760.763576 663.890456h63.99672v73.724221c-106.106562 83.771707-212.533108 94.267169-319.343634 94.267169-106.874523 0-213.749045-10.495462-320.623568-94.267169V345.570769l63.996721 30.462439v329.071135c70.844369 47.741553 143.672637 62.716786 256.626847 62.716786 112.634227 0 185.142511-14.911236 255.346914-62.588792v-41.341881z m-255.346914 103.99467c112.634227 0 185.142511-14.975233 255.346914-62.652789v-41.341881h63.99672v73.724221c-106.106562 83.771707-212.533108 94.267169-319.343634 94.267169-106.874523 0-213.749045-10.495462-320.623568-94.267169V346.466724l63.996721 29.438491v329.199128c70.844369 47.741553 143.672637 62.716786 256.626847 62.716786zM532.999249 291.941518a31.99836 31.99836 0 0 1 22.142865-60.028924L832.055922 333.923366V455.709125a31.99836 31.99836 0 1 1-63.99672 0V378.52908L532.999249 291.877521z" fill="#333333" p-id="4236"></path><path d="M792.441952 723.215415h15.23122l0.57597-4.351777a38.526026 38.526026 0 0 1-8.19158-5.759705 38.526026 38.526026 0 0 1-8.19158 5.759705l0.639967 4.351777z m-15.99918 233.396039h47.293577l-23.678787-176.630948-23.678786 176.630948z m-2.367878-297.392759h51.965336a25.598688 25.598688 0 0 1 25.406698 22.206862l41.533872 310.192103a25.598688 25.598688 0 0 1-25.406698 28.990514h-135.03308a25.598688 25.598688 0 0 1-25.406698-28.990514l41.597869-310.192103a25.598688 25.598688 0 0 1 25.342701-22.206862z" fill="#333333" p-id="4237"></path><path d="M800.057562 694.608881c-58.237015 0-101.754785-56.317114-101.754785-122.361729s43.51777-122.361729 101.754785-122.361729 101.754785 56.317114 101.754785 122.361729-43.51777 122.361729-101.754785 122.361729z m0-63.99672c18.815036 0 37.758065-24.574741 37.758065-58.365009 0-33.726272-18.943029-58.365009-37.758065-58.365008s-37.758065 24.638737-37.758065 58.365008c0 33.790268 18.943029 58.365009 37.758065 58.365009z" fill="#333333" p-id="4238"></path></svg>